<?xml version="1.0" encoding="utf-8"?>
<!-- Generator: Adobe Illustrator 27.5.0, SVG Export Plug-In . SVG Version: 6.00 Build 0)  -->
<svg version="1.1" id="Layer_1" xmlns="http://www.w3.org/2000/svg" xmlns:xlink="http://www.w3.org/1999/xlink" x="0px" y="0px"
	 viewBox="0 0 497 470" style="enable-background:new 0 0 497 470;" xml:space="preserve">
<style type="text/css">
	.st0{fill:#FF0000;}
</style>
<g>
	<path class="st0" d="M487,140c0,38.4-11.3,71.7-35.6,104.8c-21.2,29-50,54.5-80.5,81.5c-39.7,35.2-80.8,71.5-114.6,122.2l-8.2,12.2
		l-8.4-12.1c-34.6-50-76.6-86.8-113.6-119.2C63.8,274.9,10,227.7,10,140c0-34.7,13.4-67.3,37.8-91.8C72.3,23.6,105,10,140,10
		c25.2,0,49.5,7.2,70.3,20.7c15.1,9.8,27.9,22.7,37.7,37.7c23.7-36,64.7-58.5,109-58.5C428.7,10,487,68.3,487,140z"/>
</g>
</svg>
