<?xml version="1.0" encoding="utf-8"?>
<!-- Generator: Adobe Illustrator 27.5.0, SVG Export Plug-In . SVG Version: 6.00 Build 0)  -->
<svg version="1.1" id="Layer_1" xmlns="http://www.w3.org/2000/svg" xmlns:xlink="http://www.w3.org/1999/xlink" x="0px" y="0px"
	 viewBox="0 0 497 470" style="enable-background:new 0 0 497 470;" xml:space="preserve">
<style type="text/css">
	.st0{fill:#FF0000;}
</style>
<g>
	<path class="st0" d="M248.2,460.8l-8.4-12.1c-34.6-50-76.6-86.8-113.6-119.2C63.8,274.9,10,227.7,10,140
		c0-34.7,13.4-67.3,37.8-91.8C72.3,23.6,105,10,140,10c25.2,0,49.5,7.2,70.3,20.7c15.1,9.8,27.9,22.7,37.7,37.7
		c23.7-36,64.7-58.4,109-58.4c71.7,0,130,58.3,130,130c0,38.4-11.3,71.7-35.6,104.8c-21.2,29-50,54.5-80.5,81.5
		c-39.7,35.2-80.8,71.5-114.6,122.2L248.2,460.8z M140,30C79.3,30,30,79.3,30,140c0,78.6,48.3,120.9,109.4,174.4
		c35,30.7,74.3,65.1,108.5,111.2c33.7-46.9,73.9-82.5,109.8-114.3C418.7,257.3,467,214.5,467,140c0-60.7-49.3-110-110-110
		c-42.9,0-82.1,24.8-99.9,63.2l-9.1,19.6l-9.1-19.6C220.9,54.2,183,30,140,30z"/>
</g>
</svg>
